<svg xmlns="http://www.w3.org/2000/svg" width="210" height="56.077" viewBox="0 0 210 56.077">
  <g id="Group_1" data-name="Group 1" transform="translate(-291 -409)">
    <text id="Team_Eend" data-name="Team Eend" transform="translate(291 451)" font-size="45" font-family="Roboto-BoldCondensed, Roboto" font-weight="700"><tspan x="0" y="0">TEAM EEND</tspan></text>
    <path id="ducky-svgrepo-com" d="M4.855,12.545c.278-.188.334-.318.334-.343s-.074-.131-.347-.26C1.765,10.492,0,8.706,0,7.043,0,5.7.711,5.016,2.112,5.016a7.932,7.932,0,0,1,1.321.134,1.244,1.244,0,0,0,.2.017,1.6,1.6,0,0,0,1.371-.961A7.315,7.315,0,0,1,18.944,7.312a7.275,7.275,0,0,1-2,5.024c-.254.269-.288.452-.27.511s.135.142.357.194a12.649,12.649,0,0,0,2.938.436,6.415,6.415,0,0,0,1.42-.152c.29-.065.674-.191,1.119-.337a11.8,11.8,0,0,1,3.458-.758,2.649,2.649,0,0,1,2.316,1.051c1.02,1.448.725,4.362-.9,8.91-1.97,5.506-5.634,7.554-13.521,7.554-1.215,0-2.536-.047-4.036-.144A10.641,10.641,0,0,1,3.2,27.025,8.416,8.416,0,0,1,.54,20.633,9.727,9.727,0,0,1,4.855,12.545Zm5.983-8.53a1.518,1.518,0,1,0,1.518,1.518A1.518,1.518,0,0,0,10.838,4.016ZM17.286,24.43c3.7-.6,6.937-4.227,6.937-6.21,0-.97-4.4-.97-8.15-.97-5.1,0-6.792,1.607-6.792,3.59S13.066,25.109,17.286,24.43Z" transform="translate(388.549 430.368) rotate(11)" fill="#c8cc59"/>
  </g>
</svg>
